<svg width="18" height="18" viewBox="0 0 30 30" fill="none" xmlns="http://www.w3.org/2000/svg">
<path fill-rule="evenodd" clip-rule="evenodd" d="M6.31476 6.31473C11.1364 1.49306 18.9328 1.42531 23.8375 6.16246C28.5746 11.0672 28.5069 18.8635 23.6852 23.6852C18.8636 28.5069 11.0672 28.5746 6.1625 23.8375C1.42534 18.9327 1.49309 11.1364 6.31476 6.31473ZM20.6947 19.4375C20.6947 19.1042 20.5616 18.7847 20.325 18.55L16.7625 15L20.325 11.45C20.6421 11.1329 20.7659 10.6707 20.6498 10.2376C20.5338 9.80449 20.1955 9.46617 19.7623 9.35012C19.3292 9.23406 18.8671 9.35789 18.55 9.67496L15 13.2375L11.45 9.67496C11.1329 9.35789 10.6708 9.23406 10.2376 9.35012C9.80452 9.46617 9.4662 9.80449 9.35015 10.2376C9.23409 10.6707 9.35792 11.1329 9.67499 11.45L13.2375 15L9.67499 18.55C9.43835 18.7847 9.30525 19.1042 9.30525 19.4375C9.30525 19.7708 9.43835 20.0903 9.67499 20.325C9.91089 20.5589 10.2302 20.6894 10.5625 20.6875C10.8947 20.6894 11.2141 20.5589 11.45 20.325L15 16.7625L18.55 20.325C18.7859 20.5589 19.1052 20.6894 19.4375 20.6875C19.7697 20.6894 20.0891 20.5589 20.325 20.325C20.5616 20.0903 20.6947 19.7708 20.6947 19.4375Z" fill="#F44336"/>
</svg>