<svg width="18" height="18" viewBox="0 0 30 30" fill="none" xmlns="http://www.w3.org/2000/svg">
<path fill-rule="evenodd" clip-rule="evenodd" d="M0.5 13C0.5 6.09644 6.09644 0.5 13 0.5C16.3152 0.5 19.4946 1.81696 21.8388 4.16117C24.183 6.50537 25.5 9.68479 25.5 13C25.5 19.9036 19.9036 25.5 13 25.5C6.09644 25.5 0.5 19.9036 0.5 13ZM11.3875 17.6375L18.8875 10.1375C19.3777 9.64735 19.3777 8.85265 18.8875 8.3625C18.3973 7.87235 17.6027 7.87235 17.1125 8.3625L10.5 14.9875L8.8875 13.3625C8.57043 13.0454 8.10828 12.9216 7.67515 13.0377C7.24202 13.1537 6.90371 13.492 6.78765 13.9252C6.6716 14.3583 6.79543 14.8204 7.1125 15.1375L9.6125 17.6375C9.84721 17.8741 10.1667 18.0072 10.5 18.0072C10.8333 18.0072 11.1528 17.8741 11.3875 17.6375Z" fill="#3DB39E"/>
</svg>
